<mxfile host="app.diagrams.net" agent="Mozilla/5.0 (Windows NT 10.0; Win64; x64) AppleWebKit/537.36 (KHTML, like Gecko) Chrome/125.0.0.0 Safari/537.36" version="24.7.17">
  <diagram name="Page-1" id="HuCP2uXDBzLmcIKVqRLF">
    <mxGraphModel dx="1434" dy="780" grid="1" gridSize="10" guides="1" tooltips="1" connect="1" arrows="1" fold="1" page="1" pageScale="1" pageWidth="850" pageHeight="1100" math="0" shadow="0">
      <root>
        <mxCell id="0" />
        <mxCell id="1" parent="0" />
        <mxCell id="A2-Gz5Nf2j77Z33KrZrH-3" value="" style="edgeStyle=orthogonalEdgeStyle;rounded=0;orthogonalLoop=1;jettySize=auto;html=1;" parent="1" source="A2-Gz5Nf2j77Z33KrZrH-1" target="A2-Gz5Nf2j77Z33KrZrH-2" edge="1">
          <mxGeometry relative="1" as="geometry" />
        </mxCell>
        <mxCell id="A2-Gz5Nf2j77Z33KrZrH-1" value="Start" style="rounded=1;whiteSpace=wrap;html=1;" parent="1" vertex="1">
          <mxGeometry x="360" y="30" width="120" height="60" as="geometry" />
        </mxCell>
        <mxCell id="A2-Gz5Nf2j77Z33KrZrH-5" value="" style="edgeStyle=orthogonalEdgeStyle;rounded=0;orthogonalLoop=1;jettySize=auto;html=1;" parent="1" source="A2-Gz5Nf2j77Z33KrZrH-2" edge="1">
          <mxGeometry relative="1" as="geometry">
            <mxPoint x="420" y="260" as="targetPoint" />
          </mxGeometry>
        </mxCell>
        <mxCell id="A2-Gz5Nf2j77Z33KrZrH-2" value="int a;&lt;div&gt;int b;&lt;/div&gt;" style="shape=parallelogram;perimeter=parallelogramPerimeter;whiteSpace=wrap;html=1;fixedSize=1;" parent="1" vertex="1">
          <mxGeometry x="360" y="130" width="120" height="60" as="geometry" />
        </mxCell>
        <mxCell id="A2-Gz5Nf2j77Z33KrZrH-8" value="" style="edgeStyle=orthogonalEdgeStyle;rounded=0;orthogonalLoop=1;jettySize=auto;html=1;" parent="1" source="A2-Gz5Nf2j77Z33KrZrH-6" target="A2-Gz5Nf2j77Z33KrZrH-7" edge="1">
          <mxGeometry relative="1" as="geometry" />
        </mxCell>
        <mxCell id="A2-Gz5Nf2j77Z33KrZrH-6" value="isA = a % 2 == 0;&lt;div&gt;isB = b % 2 == 0;&lt;/div&gt;" style="rounded=0;whiteSpace=wrap;html=1;" parent="1" vertex="1">
          <mxGeometry x="360" y="260" width="120" height="60" as="geometry" />
        </mxCell>
        <mxCell id="A2-Gz5Nf2j77Z33KrZrH-16" value="True" style="edgeStyle=orthogonalEdgeStyle;rounded=0;orthogonalLoop=1;jettySize=auto;html=1;" parent="1" source="A2-Gz5Nf2j77Z33KrZrH-7" target="A2-Gz5Nf2j77Z33KrZrH-15" edge="1">
          <mxGeometry relative="1" as="geometry" />
        </mxCell>
        <mxCell id="A2-Gz5Nf2j77Z33KrZrH-18" value="False" style="edgeStyle=orthogonalEdgeStyle;rounded=0;orthogonalLoop=1;jettySize=auto;html=1;" parent="1" source="A2-Gz5Nf2j77Z33KrZrH-7" target="A2-Gz5Nf2j77Z33KrZrH-17" edge="1">
          <mxGeometry relative="1" as="geometry" />
        </mxCell>
        <mxCell id="A2-Gz5Nf2j77Z33KrZrH-7" value="isA &amp;amp;&amp;amp; isB" style="rhombus;whiteSpace=wrap;html=1;rounded=0;" parent="1" vertex="1">
          <mxGeometry x="330" y="390" width="180" height="90" as="geometry" />
        </mxCell>
        <mxCell id="A2-Gz5Nf2j77Z33KrZrH-23" style="edgeStyle=orthogonalEdgeStyle;rounded=0;orthogonalLoop=1;jettySize=auto;html=1;exitX=0;exitY=0.5;exitDx=0;exitDy=0;entryX=0;entryY=0.5;entryDx=0;entryDy=0;" parent="1" source="A2-Gz5Nf2j77Z33KrZrH-15" target="A2-Gz5Nf2j77Z33KrZrH-22" edge="1">
          <mxGeometry relative="1" as="geometry" />
        </mxCell>
        <mxCell id="A2-Gz5Nf2j77Z33KrZrH-15" value="a + b" style="shape=document;whiteSpace=wrap;html=1;boundedLbl=1;rounded=0;" parent="1" vertex="1">
          <mxGeometry x="100" y="395" width="120" height="80" as="geometry" />
        </mxCell>
        <mxCell id="A2-Gz5Nf2j77Z33KrZrH-20" value="True" style="edgeStyle=orthogonalEdgeStyle;rounded=0;orthogonalLoop=1;jettySize=auto;html=1;" parent="1" source="A2-Gz5Nf2j77Z33KrZrH-17" target="A2-Gz5Nf2j77Z33KrZrH-19" edge="1">
          <mxGeometry relative="1" as="geometry" />
        </mxCell>
        <mxCell id="A2-Gz5Nf2j77Z33KrZrH-26" value="False" style="edgeStyle=orthogonalEdgeStyle;rounded=0;orthogonalLoop=1;jettySize=auto;html=1;exitX=1;exitY=0.5;exitDx=0;exitDy=0;entryX=1;entryY=0.5;entryDx=0;entryDy=0;" parent="1" source="A2-Gz5Nf2j77Z33KrZrH-17" target="A2-Gz5Nf2j77Z33KrZrH-22" edge="1">
          <mxGeometry x="-0.1064" relative="1" as="geometry">
            <mxPoint as="offset" />
          </mxGeometry>
        </mxCell>
        <mxCell id="A2-Gz5Nf2j77Z33KrZrH-17" value="!isA || !isB" style="rhombus;whiteSpace=wrap;html=1;rounded=0;" parent="1" vertex="1">
          <mxGeometry x="330" y="560" width="180" height="90" as="geometry" />
        </mxCell>
        <mxCell id="A2-Gz5Nf2j77Z33KrZrH-24" style="edgeStyle=orthogonalEdgeStyle;rounded=0;orthogonalLoop=1;jettySize=auto;html=1;exitX=0;exitY=0.5;exitDx=0;exitDy=0;entryX=0;entryY=0.25;entryDx=0;entryDy=0;" parent="1" source="A2-Gz5Nf2j77Z33KrZrH-19" target="A2-Gz5Nf2j77Z33KrZrH-22" edge="1">
          <mxGeometry relative="1" as="geometry" />
        </mxCell>
        <mxCell id="A2-Gz5Nf2j77Z33KrZrH-19" value="a - b" style="shape=document;whiteSpace=wrap;html=1;boundedLbl=1;rounded=0;" parent="1" vertex="1">
          <mxGeometry x="110" y="565" width="120" height="80" as="geometry" />
        </mxCell>
        <mxCell id="A2-Gz5Nf2j77Z33KrZrH-22" value="End" style="rounded=1;whiteSpace=wrap;html=1;" parent="1" vertex="1">
          <mxGeometry x="360" y="740" width="120" height="60" as="geometry" />
        </mxCell>
      </root>
    </mxGraphModel>
  </diagram>
</mxfile>
